<svg width="52" height="46" viewBox="0 0 52 46" fill="none" xmlns="http://www.w3.org/2000/svg">
<path d="M47.0719 4.05702C45.7904 2.77108 44.2677 1.75076 42.5911 1.05457C40.9144 0.358373 39.1168 0 37.3014 0C35.486 0 33.6884 0.358373 32.0117 1.05457C30.3351 1.75076 28.8124 2.77108 27.5309 4.05702L25.564 6.04944L23.5971 4.05702C22.3157 2.77108 20.7929 1.75076 19.1163 1.05457C17.4396 0.358373 15.6421 0 13.8266 0C12.0112 0 10.2136 0.358373 8.53695 1.05457C6.86031 1.75076 5.33758 2.77108 4.0561 4.05702C-1.35919 9.47231 -1.69126 18.617 5.12894 25.5649L25.564 46L45.9991 25.5649C52.8193 18.617 52.4872 9.47231 47.0719 4.05702Z" fill="white"/>
</svg>
